<svg id="visual" viewBox="0 0 1920 1080" width="1920" height="1080" xmlns="http://www.w3.org/2000/svg" xmlns:xlink="http://www.w3.org/1999/xlink" version="1.1"><rect x="0" y="0" width="1920" height="1080" fill="#223F4A"></rect><path d="M0 318L274 510L549 550L823 401L1097 545L1371 572L1646 585L1920 482L1920 1081L1646 1081L1371 1081L1097 1081L823 1081L549 1081L274 1081L0 1081Z" fill="#deb45f"></path><path d="M0 451L274 472L549 546L823 620L1097 515L1371 685L1646 485L1920 457L1920 1081L1646 1081L1371 1081L1097 1081L823 1081L549 1081L274 1081L0 1081Z" fill="#e29b4b"></path><path d="M0 571L274 754L549 765L823 748L1097 759L1371 707L1646 574L1920 598L1920 1081L1646 1081L1371 1081L1097 1081L823 1081L549 1081L274 1081L0 1081Z" fill="#e67f41"></path><path d="M0 783L274 698L549 768L823 737L1097 701L1371 885L1646 875L1920 799L1920 1081L1646 1081L1371 1081L1097 1081L823 1081L549 1081L274 1081L0 1081Z" fill="#e86040"></path><path d="M0 878L274 934L549 962L823 982L1097 972L1371 893L1646 908L1920 941L1920 1081L1646 1081L1371 1081L1097 1081L823 1081L549 1081L274 1081L0 1081Z" fill="#e63948"></path></svg>